<?xml version="1.0" encoding="utf-8"?>
<!-- Uploaded to: SVG Repo, www.svgrepo.com, Generator: SVG Repo Mixer Tools -->
<svg fill="#000000" version="1.1" id="Layer_1" xmlns="http://www.w3.org/2000/svg" xmlns:xlink="http://www.w3.org/1999/xlink" 
	 width="800px" height="800px" viewBox="0 0 256 249" enable-background="new 0 0 256 249" xml:space="preserve">
<path d="M224.631,44.922V33.827h-60.044v11.095h-29.369v27.399h33.391v11.095h29.368v114.879h7.074H254V44.922H224.631z
	 M234.42,155.922h-19.58v-19.579h19.58V155.922z M234.42,126.683h-17.882h-1.697v-19.579h19.58V126.683z M234.42,97.314h-19.58
	V77.735h19.58V97.314z M58.022,83.416v83.118h-7.074H2V13.161h29.369V2.066h60.044v11.095h29.369v59.16H87.391v11.095H58.022z
	 M187.391,246.934h-48.949v-32.11h-20.885v32.11H68.609V93.561h29.369V82.466h60.044v11.095h29.369V246.934z M107.768,171.749
	H88.188v19.579h19.579V171.749z M107.768,142.51H88.188v19.579h19.579V142.51z M107.768,113.141H88.188v19.579h19.579V113.141z
	 M138.442,171.749h-20.885v19.579h20.885V171.749z M138.312,162.09V142.51H128h-0.131h-10.312v19.579h20.885H138.312z
	 M138.442,113.141H128.13H128h-10.312v19.579H128h0.131h10.312V113.141z M167.811,171.749h-19.579v19.579h19.579V171.749z
	 M167.811,142.51h-19.579v19.579h1.697h17.883V142.51z M167.811,113.141h-19.579v19.579h19.579V113.141z"/>
</svg>