<?xml version="1.0" encoding="utf-8"?>
<svg version="1.1" xmlns="http://www.w3.org/2000/svg" xmlns:xlink="http://www.w3.org/1999/xlink" x="0px" y="0px"
	 viewBox="0 0 26.2 26.2" style="enable-background:new 0 0 26.2 26.2;" xml:space="preserve">
<style type="text/css">
	.st0{fill:#ffa800;}
	.st1{fill:#FFFFFF;}
</style>
<path class="st0" d="M21.2,25.5l-8.1-4.3L5,25.5l1.6-9L0,10.2l9.1-1.3l4-8.3l4,8.3l9.1,1.3l-6.6,6.4L21.2,25.5z M2.2,10.9l5.5,5.3
	l-1.3,7.5l6.7-3.6l6.7,3.6l-1.3-7.5l5.5-5.3l-7.6-1l-3.3-6.9L9.8,9.8L2.2,10.9z"/>
<g>
	<polygon class="st1" points="21.2,25.5 13.1,21.2 5,25.5 6.6,16.5 0,10.2 0,26.2 26.2,26.2 26.2,10.2 19.6,16.5 	"/>
	<polygon class="st1" points="0,10.2 9.1,8.9 13.1,0.6 17.1,8.9 26.2,10.2 26.2,0 0,0 	"/>
</g>
</svg>
